<svg width="17" height="16" viewBox="0 0 17 16" fill="none" xmlns="http://www.w3.org/2000/svg">
<g clip-path="url(#clip0_812_486)">
<path d="M14.6232 11.1653L14.502 12.5408C14.3588 14.1744 13.014 15.4061 11.3741 15.4061H5.55614C3.93379 15.4061 2.55954 14.1399 2.42639 12.5232L2.30894 11.0937C2.82397 11.4303 3.46336 11.6376 4.12159 11.6376C4.95506 11.6376 5.76529 11.3129 6.3199 10.8035C6.8745 11.3135 7.68473 11.6376 8.5182 11.6376C9.35167 11.6376 10.1619 11.3129 10.7165 10.8035C11.2711 11.3135 12.0813 11.6376 12.9148 11.6376C13.5278 11.6376 14.1283 11.4617 14.6232 11.1653ZM8.5182 4.1106C8.49056 4.1106 8.46732 4.12191 8.44848 4.14389C7.63888 5.07597 7.57607 5.54829 7.57607 5.67139C7.57607 6.19082 7.99877 6.61352 8.5182 6.61352C9.03763 6.61352 9.46033 6.19082 9.46033 5.67139C9.46033 5.54892 9.39752 5.07597 8.58792 4.14389C8.56907 4.12191 8.54583 4.11123 8.5182 4.11123V4.1106ZM15.3957 2.38148L14.794 9.22636C14.794 9.22636 14.171 10.3814 12.9148 10.3814C12.2082 10.3814 11.4978 10.0008 11.2969 9.51403C11.2001 9.2785 10.9702 9.12524 10.7165 9.12524C10.4628 9.12524 10.2329 9.2785 10.1361 9.51403C9.93579 10.0002 9.2248 10.3814 8.5182 10.3814C7.8116 10.3814 7.10123 10.0008 6.90025 9.51403C6.80352 9.2785 6.57364 9.12524 6.3199 9.12524C6.06615 9.12524 5.83627 9.2785 5.73954 9.51403C5.53918 10.0002 4.82819 10.3814 4.12159 10.3814C2.55138 10.3814 2.15066 9.17109 2.15066 9.17109L1.59166 2.3708C1.54895 1.8476 1.72796 1.32566 2.08408 0.939391C2.44021 0.553118 2.94456 0.332031 3.46964 0.332031H13.519C14.046 0.332031 14.5522 0.555002 14.9084 0.943159C15.2645 1.33194 15.4422 1.8564 15.3957 2.38148ZM10.7165 5.67077C10.7165 5.01253 10.3196 4.22177 9.53695 3.31984C9.02318 2.72818 8.01322 2.72755 7.49944 3.31984C6.71685 4.22177 6.3199 5.01253 6.3199 5.67077C6.3199 6.88297 7.30599 7.86907 8.5182 7.86907C9.7304 7.86907 10.7165 6.88297 10.7165 5.67077Z" fill="#142357"/>
</g>
<defs>
<clipPath id="clip0_812_486">
<rect width="15.0741" height="15.0741" fill="white" transform="translate(0.981445 0.332031)"/>
</clipPath>
</defs>
</svg>
