<svg width="58" height="57" viewBox="0 0 58 57" fill="none" xmlns="http://www.w3.org/2000/svg">
<g clip-path="url(#clip0_433_2775)">
<path d="M56.033 29.0134C56.033 44.6903 45.2973 55.847 29.443 55.847C14.2425 55.847 1.9668 43.5713 1.9668 28.3708C1.9668 13.1702 14.2425 0.894531 29.443 0.894531C36.8439 0.894531 43.0704 3.60892 47.8676 8.08489L40.3892 15.2752C30.6063 5.83582 12.4144 12.9265 12.4144 28.3708C12.4144 37.9542 20.0701 45.7207 29.443 45.7207C40.3227 45.7207 44.3999 37.921 45.0425 33.8771H29.443V24.4266H55.6009C55.8557 25.8337 56.033 27.1853 56.033 29.0134Z" fill="#142357"/>
</g>
<defs>
<clipPath id="clip0_433_2775">
<rect width="56.7252" height="56.7252" fill="white" transform="translate(0.637695 0.0078125)"/>
</clipPath>
</defs>
</svg>
