<svg width="72" height="72" viewBox="0 0 72 72" fill="none" xmlns="http://www.w3.org/2000/svg">
<g clip-path="url(#clip0_213_1190)">
<path d="M36.0001 0C27.1942 0.0258873 18.7014 3.26936 12.1201 9.12L8.1211 5.121C7.70155 4.70157 7.16706 4.41595 6.5852 4.30025C6.00334 4.18455 5.40024 4.24396 4.85214 4.47097C4.30404 4.69798 3.83555 5.08239 3.5059 5.57562C3.17624 6.06885 3.00023 6.64875 3.0001 7.242V21C3.0001 21.7956 3.31617 22.5587 3.87878 23.1213C4.44139 23.6839 5.20445 24 6.0001 24H19.7581C20.3514 23.9999 20.9312 23.8239 21.4245 23.4942C21.9177 23.1646 22.3021 22.6961 22.5291 22.148C22.7561 21.5999 22.8156 20.9968 22.6999 20.4149C22.5842 19.833 22.2985 19.2986 21.8791 18.879L18.4741 15.474C22.4476 12.0796 27.3208 9.91131 32.5024 9.23216C37.684 8.553 42.9514 9.39219 47.6655 11.6479C52.3795 13.9036 56.3376 17.4789 59.0596 21.94C61.7816 26.4011 63.1505 31.5562 63.0001 36.78C62.8071 43.5296 60.0921 49.9619 55.3904 54.8084C50.6888 59.6549 44.3418 62.5638 37.6012 62.9615C30.8606 63.3591 24.2156 61.2167 18.9767 56.9566C13.7379 52.6965 10.2854 46.6281 9.3001 39.948C9.15942 38.8618 8.62999 37.8634 7.80983 37.1376C6.98966 36.4117 5.9343 36.0076 4.8391 36C4.20359 35.9918 3.57365 36.1193 2.99136 36.374C2.40906 36.6287 1.88782 37.0047 1.46245 37.4769C1.03708 37.9492 0.717372 38.5067 0.524689 39.1124C0.332005 39.718 0.270779 40.3578 0.345102 40.989C1.59373 49.8269 6.07626 57.8875 12.9253 63.611C19.7743 69.3345 28.5029 72.314 37.4221 71.973C46.4453 71.5383 54.9831 67.7585 61.3709 61.3708C67.7586 54.983 71.5384 46.4452 71.9731 37.422C72.1591 32.5798 71.3666 27.7497 69.643 23.2208C67.9195 18.6919 65.3003 14.557 61.9421 11.0635C58.5839 7.57006 54.5557 4.78971 50.0983 2.88876C45.6409 0.98781 40.8459 0.00530486 36.0001 0Z" fill="white"/>
<path d="M34.5 21C33.3065 21 32.1619 21.4741 31.318 22.318C30.4741 23.1619 30 24.3065 30 25.5V38.379C30.0003 39.9702 30.6327 41.496 31.758 42.621L37.137 48C37.9857 48.8197 39.1224 49.2733 40.3023 49.263C41.4822 49.2528 42.6108 48.7795 43.4452 47.9452C44.2795 47.1108 44.7528 45.9822 44.763 44.8023C44.7733 43.6224 44.3197 42.4857 43.5 41.637L39 37.137V25.5C39 24.3065 38.5259 23.1619 37.682 22.318C36.8381 21.4741 35.6935 21 34.5 21Z" fill="white"/>
</g>
<defs>
<clipPath id="clip0_213_1190">
<rect width="72" height="72" fill="white"/>
</clipPath>
</defs>
</svg>
