<svg width="72" height="72" viewBox="0 0 72 72" fill="none" xmlns="http://www.w3.org/2000/svg">
<path d="M20.0401 5.83385L14.8766 0.553847C6.21063 7.31077 0.505517 17.7231 0 29.5385H7.22167C7.76329 19.7538 12.674 11.1877 20.0401 5.83385ZM64.7783 29.5385H72C71.4584 17.7231 65.7533 7.31077 57.1234 0.553847L51.996 5.83385C59.2899 11.1877 64.2367 19.7538 64.7783 29.5385ZM57.665 31.3846C57.665 20.0492 51.7432 10.56 41.4163 8.04923V5.53846C41.4163 2.47385 38.997 0 36 0C33.003 0 30.5838 2.47385 30.5838 5.53846V8.04923C20.2207 10.56 14.335 20.0123 14.335 31.3846V49.8462L7.11334 57.2308V60.9231H64.8867V57.2308L57.665 49.8462V31.3846ZM36 72C36.5055 72 36.9749 71.9631 37.4443 71.8523C39.7914 71.3354 41.7051 69.7108 42.6439 67.4954C43.005 66.6092 43.1856 65.6492 43.1856 64.6154H28.7422C28.7783 68.6769 31.992 72 36 72Z" fill="white"/>
</svg>
