<svg width="72" height="72" viewBox="0 0 72 72" fill="none" xmlns="http://www.w3.org/2000/svg">
<path d="M36 36C45.9411 36 54 27.9411 54 18C54 8.05887 45.9411 0 36 0C26.0589 0 18 8.05887 18 18C18 27.9411 26.0589 36 36 36Z" fill="url(#paint0_linear_213_1180)"/>
<path d="M36 42C21.0952 42.0166 9.01659 54.0952 9 69C9 70.6568 10.3431 72 12 72H59.9999C61.6567 72 62.9999 70.6568 62.9999 69C62.9834 54.0952 50.9048 42.0165 36 42Z" fill="url(#paint1_linear_213_1180)"/>
<defs>
<linearGradient id="paint0_linear_213_1180" x1="20.5" y1="-35.4865" x2="53.9889" y2="57.9999" gradientUnits="userSpaceOnUse">
<stop stop-color="#59A3FF"/>
<stop offset="1" stop-color="#173BB6"/>
</linearGradient>
<linearGradient id="paint1_linear_213_1180" x1="12.75" y1="12.428" x2="29.5772" y2="96.9814" gradientUnits="userSpaceOnUse">
<stop stop-color="#59A3FF"/>
<stop offset="1" stop-color="#173BB6"/>
</linearGradient>
</defs>
</svg>
