<svg width="17" height="17" viewBox="0 0 17 17" fill="none" xmlns="http://www.w3.org/2000/svg">
<path d="M12.7001 5.0625C9.44482 5.0625 9.44482 7.92714 9.44482 8.86856C9.44482 9.67522 9.63558 10.2475 9.80421 10.7521C9.82309 10.8094 9.84197 10.866 9.8602 10.922H15.6337C15.9384 10.0704 15.9554 8.61986 15.9554 8.31777C15.9554 6.74417 15.1005 5.0625 12.7001 5.0625Z" fill="#142357"/>
<path d="M12.7004 15.4779C13.8886 15.4779 15.3046 14.9128 15.3046 12.2227H10.0962C10.0962 14.3829 10.9725 15.4779 12.7004 15.4779Z" fill="#142357"/>
<path d="M4.88759 1.15625C2.48716 1.15625 1.63232 2.83792 1.63232 4.41152C1.63232 4.71361 1.64925 6.16481 1.95329 7.01574H7.72749C7.74572 6.95975 7.7646 6.90311 7.78348 6.84581C7.95211 6.34125 8.14286 5.76897 8.14286 4.96231C8.14286 4.02089 8.14286 1.15625 4.88759 1.15625Z" fill="#142357"/>
<path d="M4.88791 11.5736C6.61581 11.5736 7.49213 10.4786 7.49213 8.31836H2.28369C2.28369 11.0085 3.69973 11.5736 4.88791 11.5736Z" fill="#142357"/>
</svg>
