<svg width="60" height="60" viewBox="0 0 60 60" fill="none" xmlns="http://www.w3.org/2000/svg">
<path d="M22.3789 47.243C22.3789 51.3627 19.0392 54.7025 14.9194 54.7025C10.7997 54.7025 7.45996 51.3627 7.45996 47.243C7.45996 43.1232 10.7997 39.7835 14.9194 39.7835C19.0392 39.7835 22.3789 43.1232 22.3789 47.243ZM22.3789 47.243H43.5141C45.8222 47.243 48.0358 46.3261 49.6678 44.694C51.2999 43.062 52.2168 40.8484 52.2168 38.5403C52.2168 36.2322 51.2999 34.0186 49.6678 32.3865C48.0358 30.7545 45.8222 29.8376 43.5141 29.8376H16.1627C13.8546 29.8376 11.641 28.9207 10.0089 27.2886C8.37685 25.6565 7.45996 23.4429 7.45996 21.1348C7.45996 18.8267 8.37685 16.6132 10.0089 14.9811C11.641 13.349 13.8546 12.4321 16.1627 12.4321H37.2979M37.2979 12.4321C37.2979 16.5519 40.6376 19.8916 44.7573 19.8916C48.8771 19.8916 52.2168 16.5519 52.2168 12.4321C52.2168 8.31237 48.8771 4.97265 44.7573 4.97265C40.6376 4.97265 37.2979 8.31237 37.2979 12.4321Z" stroke="#2979FF" stroke-width="4.97298" stroke-linecap="round" stroke-linejoin="round"/>
</svg>
