<svg width="72" height="72" viewBox="0 0 72 72" fill="none" xmlns="http://www.w3.org/2000/svg">
<g clip-path="url(#clip0_213_1185)">
<path d="M0 41.9311V15.0001C0 6.72907 6.729 7.03125e-05 15 7.03125e-05H18V32.6701L0 41.9311ZM40.242 7.03125e-05H24V33.2581L41.742 51.0001H72V31.7551C71.799 31.9711 71.616 32.1991 71.406 32.4091L65.844 37.8541C63.078 40.5571 59.406 42.0481 55.5 42.0481H55.479C51.588 42.0481 47.919 40.5571 45.156 37.8511L39.663 32.4751C35.349 28.1671 33 22.5091 33 16.4971C33 10.4851 35.343 4.83307 39.594 0.58507C39.801 0.37807 40.029 0.19507 40.242 -0.00292969V7.03125e-05ZM36.537 54.2821L20.427 38.1721L0 48.6841V57.0031C0 65.2741 6.729 72.0031 15 72.0031H23.25L36.54 54.2851L36.537 54.2821ZM30.747 72.0001H57C65.271 72.0001 72 65.2711 72 57.0001H42L30.75 72.0001H30.747ZM72 16.5001C72 20.9101 70.284 25.0531 67.167 28.1671L61.647 33.5701C59.955 35.2291 57.726 36.0541 55.5 36.0541C53.274 36.0541 51.048 35.2291 49.353 33.5701L43.857 28.1911C40.716 25.0531 39 20.9101 39 16.5031C39 12.0961 40.716 7.95007 43.833 4.83607C46.947 1.71907 51.09 0.00307031 55.5 0.00307031C59.91 0.00307031 64.05 1.71907 67.167 4.83607C70.284 7.95007 72 12.0931 72 16.5001ZM60 16.4821C60 13.9981 57.984 11.9821 55.5 11.9821C53.016 11.9821 51 13.9981 51 16.4821C51 18.9661 53.016 20.9821 55.5 20.9821C57.984 20.9821 60 18.9661 60 16.4821Z" fill="white"/>
</g>
<defs>
<clipPath id="clip0_213_1185">
<rect width="72" height="72" fill="white"/>
</clipPath>
</defs>
</svg>
