<svg width="60" height="60" viewBox="0 0 60 60" fill="none" xmlns="http://www.w3.org/2000/svg">
<g clip-path="url(#clip0_640_3829)">
<path d="M57.1966 27.3557H51.845C51.4123 27.3557 51.002 27.1244 50.7782 26.7539L47.2817 20.9447C45.0486 17.2294 40.9652 14.9241 36.6307 14.9241H27.1759C24.8034 14.9241 22.6722 16.2421 21.6153 18.3609L17.6738 26.2466C17.0595 27.4751 17.5569 28.9696 18.7854 29.5839C20.0163 30.2006 21.5084 29.6983 22.1227 28.4723L26.0642 20.5866C26.2756 20.1638 26.7009 19.9002 27.1759 19.9002H31.1597L26.8003 30.5264C25.4251 33.8836 26.6511 37.7257 29.7025 39.653L39.2195 45.7606C39.5776 45.9893 39.7889 46.3798 39.7889 46.805V57.1999C39.7889 58.5726 40.9006 59.6867 42.2758 59.6867C43.651 59.6867 44.7626 58.5726 44.7626 57.1999V46.805C44.7626 44.6763 43.6908 42.7192 41.9027 41.5728L36.3572 38.0142L42.4971 22.8546C42.6687 23.0784 42.8751 23.2699 43.0218 23.5111L46.5183 29.3228C47.6348 31.1804 49.679 32.3318 51.845 32.3318H57.1966C58.5718 32.3318 59.6834 31.2177 59.6834 29.845C59.6834 28.4723 58.5718 27.3582 57.1966 27.3582V27.3557ZM36.0587 6.21781C36.0587 2.78353 38.8415 0.000785828 42.2758 0.000785828C45.71 0.000785828 48.4928 2.78353 48.4928 6.21781C48.4928 9.65209 45.71 12.4348 42.2758 12.4348C38.8415 12.4348 36.0587 9.65209 36.0587 6.21781ZM4.97362 7.46121C4.97362 6.08849 6.08771 4.9744 7.46043 4.9744H24.8681C26.2408 4.9744 27.3549 6.08849 27.3549 7.46121C27.3549 8.83393 26.2408 9.94802 24.8681 9.94802H7.46043C6.08771 9.94802 4.97362 8.83393 4.97362 7.46121ZM9.94724 29.8425H2.48681C1.11409 29.8425 0 28.7284 0 27.3557C0 25.983 1.11409 24.8689 2.48681 24.8689H9.94724C11.32 24.8689 12.434 25.983 12.434 27.3557C12.434 28.7284 11.32 29.8425 9.94724 29.8425ZM2.48681 17.4085C2.48681 16.0357 3.6009 14.9216 4.97362 14.9216H14.9209C16.2936 14.9216 17.4077 16.0357 17.4077 17.4085C17.4077 18.7812 16.2936 19.8953 14.9209 19.8953H4.97362C3.6009 19.8953 2.48681 18.7812 2.48681 17.4085ZM28.3372 45.875C27.6185 47.3098 25.5594 49.737 22.3813 49.737H12.434C11.0613 49.737 9.94724 48.6229 9.94724 47.2502C9.94724 45.8774 11.0613 44.7634 12.434 44.7634H22.3813C23.2616 44.7634 23.8958 43.6319 23.9032 43.6219C24.5473 42.4258 26.0419 41.9533 27.248 42.575C28.4541 43.1992 28.944 44.6589 28.3372 45.875Z" fill="#2979FF"/>
</g>
<defs>
<clipPath id="clip0_640_3829">
<rect width="59.6834" height="59.6834" fill="white"/>
</clipPath>
</defs>
</svg>
