<svg width="60" height="60" viewBox="0 0 60 60" fill="none" xmlns="http://www.w3.org/2000/svg">
<path d="M29.5322 19.6867L44.298 12.3037L29.5322 4.92081V29.5306M19.6882 29.506L6.15286 37.2335C5.77412 37.4481 5.4591 37.7594 5.23992 38.1355C5.02075 38.5116 4.90527 38.9392 4.90527 39.3745C4.90527 39.8098 5.02075 40.2374 5.23992 40.6135C5.4591 40.9896 5.77412 41.3009 6.15286 41.5156L27.0712 53.4759C27.8194 53.9079 28.6682 54.1353 29.5322 54.1353C30.3961 54.1353 31.2449 53.9079 31.9931 53.4759L52.9114 41.5156C53.2902 41.3009 53.6052 40.9896 53.8244 40.6135C54.0436 40.2374 54.159 39.8098 54.159 39.3745C54.159 38.9392 54.0436 38.5116 53.8244 38.1355C53.6052 37.7594 53.2902 37.4481 52.9114 37.2335L39.3761 29.5306M15.9722 31.6224L43.0921 47.1266M43.0921 31.6224L15.9968 47.1266" stroke="#2979FF" stroke-width="4.92196" stroke-linecap="round" stroke-linejoin="round"/>
</svg>
